<?xml version="1.0" standalone="no"?>
<!DOCTYPE svg PUBLIC "-//W3C//DTD SVG 20010904//EN"
        "http://www.w3.org/TR/2001/REC-SVG-20010904/DTD/svg10.dtd">
<svg version="1.0" xmlns="http://www.w3.org/2000/svg"
     width="300.000000pt" height="110.000000pt" viewBox="0 0 300.000000 110.000000"
     preserveAspectRatio="xMidYMid meet">
    <metadata>
        Created by potrace 1.10, written by Peter Selinger 2001-2011
    </metadata>
    <g transform="translate(0.000000,110.000000) scale(0.100000,-0.100000)"
       fill="#000000" stroke="none">
        <path d="M606 773 c-7 -16 -20 -48 -27 -73 -7 -25 -16 -49 -20 -55 -7 -11 -63
-180 -77 -235 l-9 -35 -12 30 c-6 17 -14 36 -16 43 -7 18 -23 15 -30 -8 -9
-27 13 -98 33 -109 36 -18 95 -22 173 -10 l82 13 -8 70 c-3 39 -8 103 -11 143
l-4 72 36 11 c62 21 68 90 7 90 -13 0 -26 7 -29 15 -3 8 -14 17 -24 20 -10 3
-20 15 -23 25 -7 28 -24 25 -41 -7z m44 -33 c11 0 24 -9 30 -20 6 -11 21 -20
34 -20 12 0 26 -3 29 -6 9 -9 -11 -44 -24 -44 -6 0 -26 -7 -44 -16 -27 -13
-37 -13 -62 -2 l-30 13 20 65 c11 36 22 57 24 48 3 -10 13 -18 23 -18z m-35
-144 l40 -14 12 -88 c6 -49 12 -102 12 -119 1 -34 4 -33 -129 -37 -88 -3 -104
5 -115 57 -6 29 -5 28 15 -7 28 -52 46 -49 54 9 7 52 57 213 66 213 3 0 23 -7
45 -14z"/>
        <path d="M813 654 c-3 -8 -15 -19 -27 -24 -11 -4 -29 -21 -39 -38 -17 -30 -17
-31 8 -60 21 -25 25 -40 27 -118 l3 -89 68 -9 c56 -7 76 -5 114 9 25 10 54 26
64 36 23 23 25 72 4 89 -19 16 -19 29 2 52 13 14 14 21 4 31 -15 15 -41 -1
-60 -38 -12 -24 -11 -30 8 -56 22 -29 27 -49 13 -49 -5 0 -17 18 -27 41 -10
22 -38 58 -62 79 -28 24 -43 46 -43 61 0 70 -40 128 -57 83z m36 -76 c1 -21
-6 -31 -27 -42 -27 -14 -30 -13 -50 6 -19 19 -19 23 -5 44 8 13 21 24 29 24 7
0 19 10 26 23 l12 22 7 -25 c4 -14 7 -37 8 -52z m72 -105 c19 -21 41 -53 48
-71 15 -37 35 -41 52 -11 9 17 7 25 -12 45 -19 20 -21 29 -13 51 5 14 16 29
24 31 11 4 10 0 -3 -16 -18 -20 -16 -62 3 -62 14 0 20 -31 9 -52 -6 -11 -31
-29 -56 -40 -37 -16 -57 -19 -109 -13 l-64 7 0 76 c0 73 1 78 28 93 32 19 47
13 93 -38z"/>
        <path d="M1204 550 l-10 -60 27 0 c34 0 59 9 59 21 0 5 -7 9 -15 9 -8 0 -15
-4 -15 -10 0 -5 -7 -10 -15 -10 -9 0 -15 10 -15 26 0 19 4 25 15 20 8 -3 15
-1 15 3 0 5 -5 11 -12 13 -14 5 -4 38 12 38 5 0 10 -7 10 -15 0 -8 5 -15 11
-15 6 0 9 8 7 18 -2 11 -14 18 -34 20 -30 3 -30 2 -40 -58z"/>
        <path d="M1326 560 c-4 -27 -11 -50 -16 -50 -6 0 -10 -4 -10 -10 0 -17 20 -11
26 8 18 57 19 57 44 16 l24 -39 8 50 c5 27 14 53 21 57 6 4 8 10 4 14 -11 11
-30 -12 -33 -38 -1 -13 -3 -27 -3 -33 -1 -5 -12 7 -25 28 -33 53 -33 53 -40
-3z"/>
        <path d="M1472 587 c-38 -41 -24 -97 24 -97 24 0 41 16 29 28 -3 3 -10 0 -15
-7 -12 -21 -40 -5 -40 23 0 30 33 72 49 62 6 -4 9 -12 6 -17 -4 -5 1 -9 9 -9
19 0 21 11 4 28 -18 18 -42 14 -66 -11z"/>
        <path d="M1592 587 c-38 -41 -24 -97 24 -97 25 0 64 43 64 70 0 20 -31 50 -52
50 -8 0 -24 -10 -36 -23z m56 -23 c4 -36 -19 -70 -42 -61 -20 8 -21 46 0 75
20 29 38 23 42 -14z"/>
        <path d="M1802 598 c-5 -7 -12 -26 -14 -43 l-3 -30 -24 40 -24 40 -10 -35 c-5
-19 -13 -43 -19 -53 -5 -11 -7 -22 -4 -25 10 -9 19 6 25 45 l6 38 27 -45 26
-45 7 40 c4 22 12 48 17 58 12 23 5 32 -10 15z"/>
        <path d="M1844 598 c-3 -5 -3 -12 1 -16 4 -4 10 -1 12 6 8 21 24 13 19 -10
-14 -71 -15 -88 -3 -88 6 0 13 15 14 33 1 17 5 43 8 55 5 20 8 22 21 11 15
-13 30 -7 20 9 -7 12 -85 12 -92 0z"/>
        <path d="M1989 598 c0 -7 -4 -34 -8 -60 -6 -37 -5 -48 6 -48 8 0 13 12 13 30
0 22 4 28 15 24 8 -4 18 -17 21 -30 3 -13 10 -24 14 -24 5 0 5 13 0 29 -6 22
-4 33 9 45 15 16 15 18 -3 32 -24 17 -66 18 -67 2z m51 -23 c0 -17 -17 -28
-30 -20 -7 4 -7 13 0 26 12 21 30 17 30 -6z"/>
        <path d="M2113 555 c-17 -30 -28 -57 -22 -60 5 -4 9 1 9 10 0 8 6 18 14 21 8
3 12 12 10 19 -3 7 -1 16 4 19 5 3 12 -12 16 -34 4 -27 11 -40 22 -40 9 0 12
5 8 11 -4 6 -12 33 -18 60 l-11 48 -32 -54z"/>
        <path d="M2229 608 c-1 -5 -7 -38 -14 -78 -5 -30 -3 -40 7 -40 9 0 14 16 16
47 3 53 15 74 34 55 9 -9 7 -16 -7 -32 -10 -11 -13 -20 -7 -20 7 0 12 -11 12
-25 0 -15 6 -25 14 -25 11 0 13 7 6 30 -5 18 -5 32 1 35 18 11 9 43 -13 49
-24 6 -47 8 -49 4z"/>
        <path d="M2330 600 c-8 -5 -11 -12 -7 -16 3 -4 13 -2 20 4 21 18 25 6 16 -41
-11 -55 -11 -57 1 -57 5 0 12 23 16 50 4 28 11 53 15 56 5 3 9 0 9 -5 0 -6 7
-11 16 -11 9 0 14 6 12 13 -5 14 -78 20 -98 7z"/>
        <path d="M2479 608 c-1 -5 -7 -42 -13 -80 -6 -38 -6 -38 28 -38 34 0 55 15 41
28 -4 4 -10 1 -12 -5 -3 -7 -14 -13 -25 -13 -14 0 -18 5 -14 16 3 9 6 20 6 25
0 4 7 6 15 3 8 -4 15 -1 15 5 0 6 -7 11 -15 11 -18 0 -20 26 -3 36 6 4 17 -1
24 -10 13 -18 31 -5 19 14 -5 8 -63 15 -66 8z"/>
    </g>
</svg>